<!-- icon666.com - MILLIONS vector ICONS FREE --><svg version="1.1" id="Capa_1" xmlns="http://www.w3.org/2000/svg" xmlns:xlink="http://www.w3.org/1999/xlink" x="0px" y="0px" viewBox="0 0 57.19 57.19" style="enable-background:new 0 0 57.19 57.19;" xml:space="preserve"><g><path style="fill:#030104;" d="M55.629,25.267h-7.404v-4.948c0-0.86-0.701-1.561-1.562-1.561h-1.037 c-0.145,0-0.281,0.026-0.414,0.063v-2.893c0-2.206-1.794-4-4-4h-2.666c-2.206,0-4,1.794-4,4v10.849H23.301 c-0.225,0-0.438,0.05-0.631,0.136V15.928c0-2.206-1.794-4-4-4h-2.666c-2.206,0-4,1.794-4,4v2.902 c-0.141-0.042-0.286-0.071-0.44-0.071h-1.037c-0.86,0-1.561,0.7-1.561,1.561v6.196H1.561c-0.86,0-1.561,0.7-1.561,1.561v1.037 c0,0.86,0.7,1.562,1.561,1.562h7.405v4.948c0,0.859,0.7,1.561,1.561,1.561h1.037c0.154,0,0.299-0.029,0.44-0.071v4.148 c0,2.206,1.794,4,4,4h2.666c2.206,0,4-1.794,4-4V30.8c0.193,0.086,0.406,0.136,0.631,0.136h11.245v10.325c0,2.206,1.794,4,4,4 h2.666c2.206,0,4-1.794,4-4V37.12c0.133,0.036,0.27,0.062,0.414,0.062h1.037c0.86,0,1.562-0.7,1.562-1.562v-6.195h7.404 c0.859,0,1.561-0.7,1.561-1.561v-1.037C57.19,25.968,56.49,25.267,55.629,25.267z M11.564,36.184h-1.037 c-0.31,0-0.561-0.251-0.561-0.561v-4.911c0-0.554-0.447-1-1-1H1.561C1.251,29.711,1,29.423,1,29.113v-1.037 c0-0.31,0.251-0.568,0.561-0.568h7.405c0.553,0,1-0.447,1-1v-6.189c0-0.31,0.251-0.561,0.561-0.561h1.037 c0.183,0,0.337,0.093,0.44,0.229v15.968C11.901,36.091,11.747,36.184,11.564,36.184z M20.67,41.261c0,1.103-0.897,2-2,2h-2.666 c-1.103,0-2-0.897-2-2V15.928c0-1.103,0.897-2,2-2h2.666c1.103,0,2,0.897,2,2V41.261z M23.301,29.937 c-0.31,0-0.561-0.251-0.561-0.561v-1.037c0-0.31,0.251-0.561,0.561-0.561h11.245v2.159C34.546,29.937,23.301,29.937,23.301,29.937z M43.212,41.261c0,1.103-0.897,2-2,2h-2.666c-1.103,0-2-0.897-2-2V15.928c0-1.103,0.897-2,2-2h2.666c1.103,0,2,0.897,2,2V41.261z M56.19,27.865c0,0.31-0.25,0.568-0.561,0.568h-7.404c-0.554,0-1,0.447-1,1v6.188c0,0.31-0.252,0.561-0.562,0.561h-1.037 c-0.166,0-0.312-0.075-0.414-0.189V19.948c0.103-0.114,0.248-0.189,0.414-0.189h1.037c0.31,0,0.562,0.251,0.562,0.561v4.911 c0,0.553,0.446,1,1,1h7.404c0.311,0,0.561,0.288,0.561,0.597V27.865z"></path></g></svg>