<!-- icon666.com - MILLIONS vector ICONS FREE --><svg version="1.1" id="Layer_1" xmlns="http://www.w3.org/2000/svg" xmlns:xlink="http://www.w3.org/1999/xlink" x="0px" y="0px" viewBox="0 0 512 512" style="enable-background:new 0 0 512 512;" xml:space="preserve"><g><g><g><rect x="199.982" y="440.37" width="16.005" height="15.613"></rect><rect x="223.984" y="440.37" width="16.006" height="15.613"></rect><rect x="247.997" y="440.37" width="16.005" height="15.613"></rect><rect x="272.01" y="440.37" width="16.006" height="15.613"></rect><rect x="296.012" y="440.37" width="16.005" height="15.613"></rect><rect x="199.982" y="184.265" width="16.005" height="15.613"></rect><rect x="223.984" y="184.265" width="16.006" height="15.613"></rect><rect x="247.997" y="184.265" width="16.005" height="15.613"></rect><rect x="272.01" y="184.265" width="16.006" height="15.613"></rect><rect x="296.012" y="184.265" width="16.005" height="15.613"></rect><path d="M318.376,128.441l-40.797-38.358c1.429-3.056,2.234-6.462,2.234-10.053c0-10.397-6.699-19.253-16.006-22.492v-9.521 h-15.613v9.521c-9.306,3.239-16.006,12.095-16.006,22.492c0,3.591,0.804,6.997,2.234,10.053l-40.797,38.358 c-14.31,1.644-25.462,13.824-25.462,28.566v326.232c0,15.859,12.903,28.761,28.762,28.761h118.151 c15.86,0,28.762-12.903,28.762-28.761V157.007C343.838,142.265,332.686,130.084,318.376,128.441z M256,71.831 c4.522,0,8.2,3.678,8.2,8.2c0,4.521-3.678,8.2-8.2,8.2c-4.521,0-8.2-3.678-8.2-8.2C247.801,75.51,251.48,71.831,256,71.831z M245.294,101.291c3.221,1.629,6.857,2.553,10.707,2.553s7.486-0.924,10.707-2.553l28.67,26.955h-78.753L245.294,101.291z M328.225,184.267h-8.2v15.613h8.2v240.486h-8.2v15.613h8.2v27.26c0,7.25-5.899,13.148-13.149,13.148H196.925 c-7.251,0-13.149-5.899-13.149-13.148v-27.26h8.2v-15.613h-8.2V199.88h8.2v-15.613h-8.2v-27.259 c0-7.25,5.899-13.148,13.149-13.148h118.151c7.251,0,13.149,5.899,13.149,13.148V184.267z"></path><rect x="248.195" y="24.013" width="15.613" height="16.006"></rect><rect x="248.163" y="0" width="15.613" height="16.005"></rect></g></g></g></svg>